<svg width="170" height="170" viewBox="0 0 170 170" fill="none" xmlns="http://www.w3.org/2000/svg">
<path opacity="0.5" d="M127.279 42.4264C150.711 65.8578 150.711 103.848 127.279 127.279V127.279C103.848 150.711 65.8578 150.711 42.4263 127.279V127.279C18.9949 103.848 18.9949 65.8578 42.4263 42.4264L84.8528 -2.90871e-05L127.279 42.4264Z" fill="#02AEE4"/>
<path opacity="0.5" fill-rule="evenodd" clip-rule="evenodd" d="M161.931 113.509C152.28 106.88 140.593 103 128 103C98.4471 103 73.8845 124.366 68.9167 152.494C92.2866 168.557 124.505 166.201 145.279 145.426C154.311 136.394 159.862 125.199 161.931 113.509Z" fill="#02AEE4"/>
<path opacity="0.5" fill-rule="evenodd" clip-rule="evenodd" d="M8.00002 113.509C17.6508 106.88 29.3377 103 41.9307 103C71.4836 103 96.0462 124.366 101.014 152.494C77.6441 168.557 45.4259 166.201 24.6515 145.426C15.6195 136.394 10.069 125.199 8.00002 113.509Z" fill="#02AEE4"/>
<path opacity="0.5" fill-rule="evenodd" clip-rule="evenodd" d="M127.747 43.0416C95.6539 44.2262 70 70.6172 70 103C70 131.465 89.8214 155.3 116.415 161.456C126.993 159.012 137.037 153.669 145.279 145.426C168.711 121.995 168.711 84.0051 145.279 60.5736L127.747 43.0416Z" fill="#02AEE4"/>
<path opacity="0.5" fill-rule="evenodd" clip-rule="evenodd" d="M42.1056 43C74.1989 44.1847 99.8528 70.5757 99.8528 102.958C99.8528 131.423 80.0313 155.258 53.4382 161.414C42.8601 158.97 32.8161 153.627 24.5736 145.385C1.14212 121.953 1.14212 83.9635 24.5736 60.532L42.1056 43Z" fill="#02AEE4"/>
</svg>
